<svg width="21" height="22" viewBox="0 0 21 22" fill="none" xmlns="http://www.w3.org/2000/svg">
<path d="M20.3596 22H0L3.02339 3.87329H17.2076L20.3596 22Z" fill="#F7931E"/>
<path fill-rule="evenodd" clip-rule="evenodd" d="M10.2281 1.57143C9.03752 1.57143 7.89569 2.04439 7.05382 2.88627C6.21194 3.72814 5.73898 4.86997 5.73898 6.06057H4.16755C4.16755 4.4532 4.80607 2.91168 5.94265 1.7751C7.07923 0.638522 8.62075 0 10.2281 0C11.8355 0 13.377 0.638522 14.5136 1.7751C15.6502 2.91168 16.2887 4.4532 16.2887 6.06057H14.7173C14.7173 4.86997 14.2443 3.72814 13.4024 2.88627C12.5605 2.04439 11.4187 1.57143 10.2281 1.57143Z" fill="#C1272D"/>
<path d="M4.88873 7.29876C5.56374 7.29876 6.11095 6.75155 6.11095 6.07654C6.11095 5.40153 5.56374 4.85432 4.88873 4.85432C4.21371 4.85432 3.6665 5.40153 3.6665 6.07654C3.6665 6.75155 4.21371 7.29876 4.88873 7.29876Z" fill="#C1272D"/>
<path d="M15.4709 7.29876C16.1459 7.29876 16.6931 6.75155 16.6931 6.07654C16.6931 5.40153 16.1459 4.85432 15.4709 4.85432C14.7959 4.85432 14.2487 5.40153 14.2487 6.07654C14.2487 6.75155 14.7959 7.29876 15.4709 7.29876Z" fill="#C1272D"/>
</svg>
